<svg version="1.1" id="Layer_1" xmlns="http://www.w3.org/2000/svg" xmlns:xlink="http://www.w3.org/1999/xlink" x="0px" y="0px"
	 width="100%" viewBox="0 0 418 417" enable-background="new 0 0 418 417" xml:space="preserve">
<path fill="#000000" opacity="1.000000" stroke="none" 
	d="
M274.000000,418.000000 
	C182.666672,418.000000 91.833359,418.000000 1.000024,418.000000 
	C1.000016,279.000031 1.000016,140.000061 1.000008,1.000062 
	C140.333298,1.000041 279.666595,1.000041 418.999908,1.000021 
	C418.999939,139.999939 418.999939,278.999878 418.999969,417.999908 
	C370.833344,418.000000 322.666656,418.000000 274.000000,418.000000 
M246.340439,208.169312 
	C242.212128,212.407593 238.083832,216.645874 233.345062,221.170731 
	C228.546112,226.079987 223.747162,230.989258 218.340866,236.186707 
	C210.821518,243.668777 203.302155,251.150848 196.029007,258.387939 
	C207.592270,269.952240 218.741318,281.102325 229.462341,291.824341 
	C237.079132,284.488037 245.096664,276.765778 253.705368,268.748108 
	C258.173920,264.180908 262.642456,259.613708 267.705627,254.756104 
	C271.837494,250.522034 275.969360,246.287964 280.700287,241.767853 
	C285.171570,237.193268 289.642822,232.618698 294.713837,227.763519 
	C298.846375,223.524323 302.978912,219.285126 307.714874,214.768921 
	C309.008331,213.484253 310.206665,212.083450 311.610413,210.933426 
	C322.149200,202.299530 321.165649,183.511353 311.801849,176.049362 
	C306.124054,171.524719 301.432343,165.775574 296.188080,160.689499 
	C292.677917,157.285217 288.975372,154.079285 285.314178,150.734192 
	C285.314178,150.734192 285.265503,150.780762 285.434509,150.075928 
	C284.951416,149.539047 284.468323,149.002151 283.695618,147.925522 
	C281.502716,145.940659 279.309814,143.955795 276.762878,141.398605 
	C268.527222,133.232239 260.291565,125.065865 251.734055,116.321358 
	C247.510040,112.183365 243.286011,108.045372 238.745743,103.324097 
	C226.992432,91.522812 215.260376,79.700241 203.473160,67.932907 
	C199.829575,64.295456 190.631744,63.732811 187.564178,66.930069 
	C182.514633,72.193085 177.970535,78.027199 172.463669,82.745567 
	C163.728851,90.229668 166.661392,102.292084 177.248276,107.730927 
	C181.479019,111.860329 185.709763,115.989731 190.257721,120.699295 
	C197.794769,128.150620 205.331818,135.601944 212.980179,143.749664 
	C218.089676,148.807327 223.264465,153.801147 228.289902,158.940994 
	C233.110901,163.871780 237.739243,168.990372 242.520615,173.960678 
	C248.694016,180.377975 254.935349,186.729919 260.907593,193.602295 
	C260.587982,194.033737 260.268402,194.465179 259.333893,195.171112 
	C255.206985,199.410187 251.080093,203.649261 246.340439,208.169312 
M131.368713,186.193054 
	C126.230797,191.425369 121.092873,196.657700 115.356483,202.197678 
	C112.876518,204.662628 110.227966,206.981644 107.946136,209.618088 
	C98.666382,220.339859 98.393150,232.040466 106.253639,241.405060 
	C115.524559,252.449936 126.597008,261.982635 136.934891,272.073639 
	C136.934891,272.073639 136.837448,272.027374 137.097351,272.573730 
	C137.705139,273.076752 138.312943,273.579742 139.211990,274.682800 
	C148.127731,283.494751 157.043472,292.306732 166.265640,301.702301 
	C171.824722,307.166077 177.383804,312.629852 183.246979,318.683441 
	C193.950790,329.418854 204.613541,340.195648 215.375092,350.872894 
	C221.090958,356.544006 229.080719,356.479034 234.746216,350.876404 
	C239.129196,346.542084 243.470551,342.165588 247.821381,337.798859 
	C255.335037,330.257690 255.090881,322.870270 246.807861,315.353333 
	C240.906494,309.551392 235.005127,303.749451 228.798691,297.349335 
	C219.230255,287.886475 209.661819,278.423584 199.790222,268.360962 
	C198.393936,266.939697 197.002777,265.513336 195.600540,264.097961 
	C183.334030,251.716675 171.065536,239.337357 159.150665,226.376312 
	C163.805481,221.598267 168.460312,216.820236 173.709915,211.754379 
	C178.509125,206.853027 183.308334,201.951675 188.701126,196.756897 
	C194.172928,191.184280 199.644745,185.611664 205.705994,179.742004 
	C212.051788,173.400146 218.397598,167.058273 224.343689,161.115875 
	C213.036896,149.799667 201.921112,138.674637 191.979126,128.724365 
	C182.493042,137.603668 172.693466,146.776413 162.311523,156.262146 
	C157.192169,161.472015 152.072800,166.681870 146.353668,172.213852 
	C141.557663,176.768997 136.761642,181.324127 131.368713,186.193054 
z"/>
<path fill="#183C68" opacity="1.000000" stroke="none" 
	d="
M277.116913,141.970932 
	C279.309814,143.955795 281.502716,145.940659 283.826843,148.587189 
	C284.393860,149.759491 284.829681,150.270126 285.265503,150.780762 
	C285.265503,150.780762 285.314178,150.734192 285.119629,151.147018 
	C284.903961,156.137207 285.133514,160.732666 284.804932,165.287857 
	C284.267548,172.738586 277.648834,176.399582 273.649231,182.052551 
	C269.288300,185.849503 265.217865,189.479767 261.147430,193.110016 
	C254.935349,186.729919 248.694016,180.377975 242.520615,173.960678 
	C237.739243,168.990372 233.110901,163.871780 228.289902,158.940994 
	C223.264465,153.801147 218.089676,148.807327 213.402344,143.392670 
	C223.970581,143.021545 234.118835,143.134140 244.262115,142.958969 
	C255.216141,142.769852 266.165527,142.311722 277.116913,141.970932 
z"/>
<path fill="#7B2472" opacity="1.000000" stroke="none" 
	d="
M200.093384,268.960724 
	C209.661819,278.423584 219.230255,287.886475 228.554794,297.796448 
	C225.851135,298.495514 223.392212,298.955566 220.931458,298.965698 
	C204.844849,299.031860 188.756912,298.918671 172.671967,299.095276 
	C170.427246,299.119934 168.196442,300.412842 165.959213,301.118652 
	C157.043472,292.306732 148.127731,283.494751 138.946228,274.104431 
	C138.066116,273.026489 137.451782,272.526947 136.837448,272.027374 
	C136.837448,272.027374 136.934891,272.073639 136.988983,271.748993 
	C137.097198,270.919708 137.151337,270.415070 137.611511,269.907623 
	C142.967239,269.606873 147.915161,269.090790 152.866898,269.051270 
	C168.608292,268.925598 184.351120,268.977478 200.093384,268.960724 
z"/>
<path fill="#9D257E" opacity="1.000000" stroke="none" 
	d="
M137.205475,269.910431 
	C137.151337,270.415070 137.097198,270.919708 136.965729,271.797668 
	C126.597008,261.982635 115.524559,252.449936 106.253639,241.405060 
	C98.393150,232.040466 98.666382,220.339859 107.946136,209.618088 
	C110.227966,206.981644 112.876518,204.662628 115.864334,202.315170 
	C117.806557,203.534225 119.140373,204.809128 120.691681,205.709106 
	C130.402390,211.342606 140.217514,216.798538 149.863953,222.538651 
	C152.161148,223.905594 153.948212,226.129837 155.782806,228.234375 
	C151.679031,232.539230 147.873413,236.685074 143.822845,240.575928 
	C135.119110,248.936508 132.725143,258.623749 137.205475,269.910431 
z"/>
<path fill="#12588F" opacity="1.000000" stroke="none" 
	d="
M176.952133,107.127045 
	C166.661392,102.292084 163.728851,90.229668 172.463669,82.745567 
	C177.970535,78.027199 182.514633,72.193085 187.564178,66.930069 
	C190.631744,63.732811 199.829575,64.295456 203.473160,67.932907 
	C215.260376,79.700241 226.992432,91.522812 238.531708,103.806023 
	C236.196274,104.525040 234.075638,104.959854 231.953400,104.967697 
	C216.055161,105.026390 200.155563,104.910866 184.259277,105.096489 
	C181.815979,105.125023 179.387482,106.418556 176.952133,107.127045 
z"/>
<path fill="#862F7D" opacity="1.000000" stroke="none" 
	d="
M247.108932,315.955139 
	C255.090881,322.870270 255.335037,330.257690 247.821381,337.798859 
	C243.470551,342.165588 239.129196,346.542084 234.746216,350.876404 
	C229.080719,356.479034 221.090958,356.544006 215.375092,350.872894 
	C204.613541,340.195648 193.950790,329.418854 183.466583,318.198151 
	C190.776520,317.475250 197.865784,317.198303 204.957382,317.008301 
	C219.007217,316.631866 233.058334,316.303436 247.108932,315.955139 
z"/>
<path fill="#154B7D" opacity="1.000000" stroke="none" 
	d="
M276.939880,141.684769 
	C266.165527,142.311722 255.216141,142.769852 244.262115,142.958969 
	C234.118835,143.134140 223.970581,143.021545 213.346695,143.044479 
	C205.331818,135.601944 197.794769,128.150620 190.366150,120.123482 
	C192.831665,119.032227 195.185196,118.089989 197.546448,118.070267 
	C213.457886,117.937347 229.371231,118.043282 245.283234,117.950478 
	C247.542755,117.937294 249.798431,117.266129 252.055893,116.899490 
	C260.291565,125.065865 268.527222,133.232239 276.939880,141.684769 
z"/>
<path fill="#7E1365" opacity="1.000000" stroke="none" 
	d="
M162.893875,155.949158 
	C172.693466,146.776413 182.493042,137.603668 191.979126,128.724365 
	C201.921112,138.674637 213.036896,149.799667 224.343689,161.115875 
	C218.397598,167.058273 212.051788,173.400146 205.069611,179.785339 
	C190.586777,171.868820 176.740311,163.908981 162.893875,155.949158 
z"/>
<path fill="#721B69" opacity="1.000000" stroke="none" 
	d="
M137.611511,269.907623 
	C132.725143,258.623749 135.119110,248.936508 143.822845,240.575928 
	C147.873413,236.685074 151.679031,232.539230 156.060303,228.116653 
	C157.282501,227.468704 158.040070,227.213089 158.797638,226.957458 
	C171.065536,239.337357 183.334030,251.716675 195.600540,264.097961 
	C197.002777,265.513336 198.393936,266.939697 199.941803,268.660828 
	C184.351120,268.977478 168.608292,268.925598 152.866898,269.051270 
	C147.915161,269.090790 142.967239,269.606873 137.611511,269.907623 
z"/>
<path fill="#00799F" opacity="1.000000" stroke="none" 
	d="
M253.114182,269.043518 
	C245.096664,276.765778 237.079132,284.488037 229.462341,291.824341 
	C218.741318,281.102325 207.592270,269.952240 196.029007,258.387939 
	C203.302155,251.150848 210.821518,243.668777 218.834213,236.324005 
	C229.325851,246.571762 239.301880,256.704498 249.356842,266.758270 
	C250.363998,267.765350 251.850250,268.293213 253.114182,269.043518 
z"/>
<path fill="#01A4D3" opacity="1.000000" stroke="none" 
	d="
M273.939758,181.885864 
	C277.648834,176.399582 284.267548,172.738586 284.804932,165.287857 
	C285.133514,160.732666 284.903961,156.137207 285.141998,151.172226 
	C288.975372,154.079285 292.677917,157.285217 296.188080,160.689499 
	C301.432343,165.775574 306.124054,171.524719 311.801849,176.049362 
	C321.165649,183.511353 322.149200,202.299530 311.610413,210.933426 
	C310.206665,212.083450 309.008331,213.484253 307.081055,214.801819 
	C295.783020,204.316284 285.114929,193.801758 274.473175,183.260605 
	C274.154327,182.944763 274.111359,182.350372 273.939758,181.885864 
z"/>
<path fill="#802977" opacity="1.000000" stroke="none" 
	d="
M246.958405,315.654236 
	C233.058334,316.303436 219.007217,316.631866 204.957382,317.008301 
	C197.865784,317.198303 190.776520,317.475250 183.314545,317.903259 
	C177.383804,312.629852 171.824722,307.166077 166.112427,301.410461 
	C168.196442,300.412842 170.427246,299.119934 172.671967,299.095276 
	C188.756912,298.918671 204.844849,299.031860 220.931458,298.965698 
	C223.392212,298.955566 225.851135,298.495514 228.707336,298.095520 
	C235.005127,303.749451 240.906494,309.551392 246.958405,315.654236 
z"/>
<path fill="#86186C" opacity="1.000000" stroke="none" 
	d="
M162.602692,156.105652 
	C176.740311,163.908981 190.586777,171.868820 204.774902,179.933868 
	C199.644745,185.611664 194.172928,191.184280 188.109833,196.718567 
	C180.236572,192.397171 172.900772,188.202347 165.688828,183.804443 
	C159.371445,179.952011 153.193176,175.871490 146.953430,171.891724 
	C152.072800,166.681870 157.192169,161.472015 162.602692,156.105652 
z"/>
<path fill="#952078" opacity="1.000000" stroke="none" 
	d="
M158.974152,226.666885 
	C158.040070,227.213089 157.282501,227.468704 156.247406,227.842056 
	C153.948212,226.129837 152.161148,223.905594 149.863953,222.538651 
	C140.217514,216.798538 130.402390,211.342606 120.691681,205.709106 
	C119.140373,204.809128 117.806557,203.534225 116.163574,202.161346 
	C121.092873,196.657700 126.230797,191.425369 131.773773,186.371216 
	C133.838104,188.059753 135.299728,189.902313 137.188889,191.026337 
	C149.111526,198.120361 161.128983,205.054962 173.115143,212.042206 
	C168.460312,216.820236 163.805481,221.598267 158.974152,226.666885 
z"/>
<path fill="#8E1C72" opacity="1.000000" stroke="none" 
	d="
M173.412537,211.898285 
	C161.128983,205.054962 149.111526,198.120361 137.188889,191.026337 
	C135.299728,189.902313 133.838104,188.059753 132.072235,186.214325 
	C136.761642,181.324127 141.557663,176.768997 146.653564,172.052795 
	C153.193176,175.871490 159.371445,179.952011 165.688828,183.804443 
	C172.900772,188.202347 180.236572,192.397171 187.813049,196.865295 
	C183.308334,201.951675 178.509125,206.853027 173.412537,211.898285 
z"/>
<path fill="#0082A9" opacity="1.000000" stroke="none" 
	d="
M253.409760,268.895813 
	C251.850250,268.293213 250.363998,267.765350 249.356842,266.758270 
	C239.301880,256.704498 229.325851,246.571762 219.137878,236.179916 
	C223.747162,230.989258 228.546112,226.079987 233.755280,221.360046 
	C245.147324,232.715057 256.129150,243.880768 267.110992,255.046478 
	C262.642456,259.613708 258.173920,264.180908 253.409760,268.895813 
z"/>
<path fill="#0193BE" opacity="1.000000" stroke="none" 
	d="
M294.114105,228.044113 
	C289.642822,232.618698 285.171570,237.193268 280.119446,241.721054 
	C269.428131,231.675690 259.295502,221.699310 249.241547,211.644257 
	C248.234207,210.636810 247.704544,209.151749 246.953201,207.888336 
	C251.080093,203.649261 255.206985,199.410187 259.830780,195.315414 
	C270.447388,205.683029 280.547974,215.925507 290.720245,226.096237 
	C291.610626,226.986481 292.971680,227.405960 294.114105,228.044113 
z"/>
<path fill="#018BB4" opacity="1.000000" stroke="none" 
	d="
M246.646820,208.028824 
	C247.704544,209.151749 248.234207,210.636810 249.241547,211.644257 
	C259.295502,221.699310 269.428131,231.675690 279.819885,241.864075 
	C275.969360,246.287964 271.837494,250.522034 267.408325,254.901291 
	C256.129150,243.880768 245.147324,232.715057 234.060516,221.216766 
	C238.083832,216.645874 242.212128,212.407593 246.646820,208.028824 
z"/>
<path fill="#019CC9" opacity="1.000000" stroke="none" 
	d="
M294.413971,227.903809 
	C292.971680,227.405960 291.610626,226.986481 290.720245,226.096237 
	C280.547974,215.925507 270.447388,205.683029 260.138245,195.178162 
	C260.268402,194.465179 260.587982,194.033737 261.027527,193.356171 
	C265.217865,189.479767 269.288300,185.849503 273.649231,182.052551 
	C274.111359,182.350372 274.154327,182.944763 274.473175,183.260605 
	C285.114929,193.801758 295.783020,204.316284 306.779358,214.940338 
	C302.978912,219.285126 298.846375,223.524323 294.413971,227.903809 
z"/>
<path fill="#135186" opacity="1.000000" stroke="none" 
	d="
M251.894974,116.610428 
	C249.798431,117.266129 247.542755,117.937294 245.283234,117.950478 
	C229.371231,118.043282 213.457886,117.937347 197.546448,118.070267 
	C195.185196,118.089989 192.831665,119.032227 190.207535,119.833405 
	C185.709763,115.989731 181.479019,111.860329 177.100204,107.428986 
	C179.387482,106.418556 181.815979,105.125023 184.259277,105.096489 
	C200.155563,104.910866 216.055161,105.026390 231.953400,104.967697 
	C234.075638,104.959854 236.196274,104.525040 238.689819,104.097664 
	C243.286011,108.045372 247.510040,112.183365 251.894974,116.610428 
z"/>
<path fill="#9D257E" opacity="1.000000" stroke="none" 
	d="
M136.967407,272.300537 
	C137.451782,272.526947 138.066116,273.026489 138.800598,273.804413 
	C138.312943,273.579742 137.705139,273.076752 136.967407,272.300537 
z"/>
<path fill="#01A4D3" opacity="1.000000" stroke="none" 
	d="
M285.350006,150.428345 
	C284.829681,150.270126 284.393860,149.759491 283.971619,148.857056 
	C284.468323,149.002151 284.951416,149.539047 285.350006,150.428345 
z"/>
</svg>